<svg width="65" height="64" viewBox="0 0 65 64" fill="none" xmlns="http://www.w3.org/2000/svg">
<g clip-path="url(#clip0_1_10)">
<path fill-rule="evenodd" clip-rule="evenodd" d="M0.5 0H64.5V64H0.5V0Z" fill="url(#paint0_linear_1_10)"/>
<path fill-rule="evenodd" clip-rule="evenodd" d="M54.5 30.666C54.5 36.194 50.719 38.223 48.466 38.94L47.862 37.02C49.979 36.348 52.5 34.7 52.5 30.666C52.5 25.564 48.311 24.289 46.51 23.977C46.2561 23.9328 46.029 23.7925 45.8757 23.5852C45.7225 23.378 45.6549 23.1197 45.687 22.864C45.505 20.572 44.448 18.928 42.849 18.458C41.524 18.068 40.108 18.587 39.235 19.778C39.016 20.077 38.647 20.228 38.283 20.175C38.103 20.1477 37.9338 20.0718 37.7938 19.9555C37.6537 19.8392 37.548 19.6869 37.488 19.515C36.857 17.721 35.946 16.215 34.78 15.037C33.35 13.593 29.43 10.491 23.891 12.851C20.695 14.212 18.192 18.138 18.192 21.787C18.192 22.198 18.217 22.607 18.265 23.003C18.324 23.505 18.006 23.974 17.519 24.1C15.645 24.58 12.5 26.064 12.5 30.6C12.5 30.75 12.504 30.896 12.511 31.04C12.651 33.956 14.789 36.463 17.708 37.137L17.261 39.098C13.472 38.224 10.697 34.95 10.513 31.138C10.5041 30.9588 10.4997 30.7794 10.5 30.6C10.5 25.226 14.021 23.16 16.207 22.396C16.197 22.194 16.192 21.991 16.192 21.787C16.192 17.317 19.167 12.679 23.111 10.997C27.731 9.03 32.623 10.009 36.196 13.617C37.242 14.672 38.11 15.94 38.787 17.398C40.109 16.395 41.796 16.054 43.409 16.526C45.697 17.199 47.24 19.28 47.622 22.156C51.078 23.011 54.5 25.624 54.5 30.666ZM45.5 48.368L40.5 51.243V44.503L45.5 41.629V48.368ZM39.5 42.762L34.491 39.892L39.501 36.907L44.509 39.881L39.5 42.762ZM31.5 48.386L26.5 51.26V44.503L31.5 41.618V48.386ZM19.462 41.635L24.5 44.507V51.137L19.462 47.833V41.635ZM32.481 24.956L37.486 27.836L32.498 30.688L27.513 27.858L32.481 24.956ZM38.5 35.164L33.5 38.144V32.43L38.5 29.57V35.164ZM31.5 38.122L26.5 35.162V29.593L31.5 32.433V38.122ZM25.497 42.762L20.461 39.892L25.5 36.905L30.509 39.869L25.497 42.762ZM38.5 51.247L33.5 48.385V41.64L38.5 44.505V51.247ZM47.008 39.03L47.009 39.029L40.5 35.163V27.839C40.5 27.481 40.311 27.149 40.003 26.969C39.984 26.959 39.965 26.955 39.946 26.946L39.952 26.935L32.974 22.922C32.8222 22.8343 32.6499 22.7883 32.4746 22.7889C32.2993 22.7894 32.1272 22.8364 31.976 22.925L24.998 27H24.996C24.8446 27.0891 24.7192 27.2164 24.6322 27.369C24.5452 27.5216 24.4996 27.6943 24.5 27.87V35.162L17.954 39.042C17.649 39.224 17.462 39.553 17.462 39.909V48.378C17.462 48.718 17.633 49.035 17.916 49.221L24.954 53.837L24.957 53.832C24.972 53.842 24.982 53.855 24.998 53.864C25.1491 53.953 25.3211 54.0003 25.4965 54.001C25.6718 54.0017 25.8442 53.9558 25.996 53.868L32.501 50.128L38.998 53.847L39.006 53.851C39.1566 53.9375 39.3273 53.983 39.501 53.983C39.6747 53.983 39.8454 53.9375 39.996 53.851L46.996 49.825C47.308 49.645 47.5 49.313 47.5 48.952V39.895C47.5 39.539 47.313 39.21 47.008 39.03Z" fill="white"/>
</g>
<defs>
<linearGradient id="paint0_linear_1_10" x1="0.5" y1="6400" x2="6400.5" y2="0" gradientUnits="userSpaceOnUse">
<stop stop-color="#2E27AD"/>
<stop offset="1" stop-color="#527FFF"/>
</linearGradient>
<clipPath id="clip0_1_10">
<rect width="64" height="64" fill="white" transform="translate(0.5)"/>
</clipPath>
</defs>
</svg>
