<svg width="65" height="65" viewBox="0 0 65 65" fill="none" xmlns="http://www.w3.org/2000/svg">
<g clip-path="url(#clip0_1_14)">
<path fill-rule="evenodd" clip-rule="evenodd" d="M0.365875 0.885846H64.3659V64.8858H0.365875V0.885846Z" fill="url(#paint0_linear_1_14)"/>
<path fill-rule="evenodd" clip-rule="evenodd" d="M48.7509 21.8918V16.5888C48.7509 15.6668 48.1329 14.8868 47.4009 14.8868H13.7359C13.0029 14.8868 12.3859 15.6668 12.3859 16.5888V21.8918H27.5369V17.8898C27.5369 17.3368 27.9889 16.8888 28.5469 16.8888H45.7199C46.2779 16.8888 46.7299 17.3368 46.7299 17.8888V21.8918H48.7509ZM44.7109 18.8898H29.5589V31.2738C30.5394 29.442 32.1494 28.0266 34.0919 27.2888C33.4755 26.5096 33.1394 25.5454 33.1379 24.5518C33.1379 22.0848 35.1769 20.0778 37.6839 20.0778C40.1899 20.0778 42.2299 22.0848 42.2299 24.5518C42.2267 25.6103 41.8435 26.6323 41.1499 27.4318C42.5676 28.0481 43.7962 29.0299 44.7099 30.2768L44.7109 18.8898ZM40.2089 24.5518C40.2089 23.1878 39.0769 22.0798 37.6839 22.0798C36.2909 22.0798 35.1589 23.1878 35.1589 24.5518C35.1589 25.4488 35.6569 26.2748 36.4589 26.7098C36.8349 26.9113 37.2549 27.0166 37.6815 27.0164C38.1081 27.0162 38.528 26.9106 38.9039 26.7088C39.2961 26.5009 39.6246 26.1905 39.8544 25.8106C40.0842 25.4308 40.2067 24.9958 40.2089 24.5518ZM48.7519 33.9008V23.8938H46.7309V30.8988H45.0179L43.3719 31.8838C42.5153 30.4933 41.1798 29.464 39.6169 28.9898C38.9331 29.2883 38.195 29.4423 37.4489 29.4423C36.7028 29.4423 35.9647 29.2883 35.2809 28.9898C33.989 29.377 32.8473 30.1517 32.0102 31.2091C31.1732 32.2666 30.6812 33.5556 30.6009 34.9018H36.6299V36.9028H28.5479C27.9899 36.9028 27.5379 36.4548 27.5379 35.9028V23.8928H12.3859V38.2028C12.3859 39.1258 13.0039 39.9048 13.7359 39.9048H33.5989V41.9068H13.7369C11.8779 41.9068 10.3659 40.2448 10.3659 38.2038V16.5888C10.3659 14.5458 11.8779 12.8858 13.7359 12.8858H47.4009C49.2589 12.8858 50.7709 14.5468 50.7709 16.5888V33.9008H48.7519ZM43.6719 47.8798L49.2979 42.3058L47.8689 40.8908L42.9569 45.7568L40.8419 43.6618L39.4129 45.0768L42.2429 47.8798C42.4328 48.0682 42.6894 48.1738 42.9569 48.1738C43.2243 48.1738 43.482 48.0682 43.6719 47.8798ZM45.6829 36.8488C46.9127 36.9969 48.0874 37.4441 49.1043 38.1514C50.1212 38.8586 50.9492 39.8044 51.5159 40.9058C52.2059 42.2458 52.4729 43.7488 52.2889 45.2498C52.1113 46.7281 51.4967 48.1198 50.5239 49.2468C49.825 50.0555 48.9646 50.7089 47.9979 51.1648C46.7073 51.773 45.271 52.0036 43.8549 51.8298C42.4751 51.6638 41.1674 51.1217 40.0749 50.2628C39.0525 49.4659 38.2546 48.4171 37.7593 47.2191C37.2641 46.0212 37.0886 44.7151 37.2499 43.4288C37.4004 42.2024 37.8497 41.0317 38.5583 40.0194C39.2669 39.0071 40.2131 38.1842 41.3139 37.6228C42.66 36.9326 44.1816 36.663 45.6829 36.8488ZM48.8639 52.9728C50.0867 52.3959 51.1754 51.5695 52.0599 50.5468C53.2907 49.121 54.0688 47.3608 54.2949 45.4908C54.5285 43.6023 54.187 41.6872 53.3149 39.9958C52.5969 38.6017 51.548 37.4048 50.2602 36.5099C48.9724 35.6151 47.4849 35.0496 45.9279 34.8628C44.0238 34.6276 42.0929 34.9701 40.3859 35.8458C38.9935 36.5553 37.7965 37.5956 36.9 38.8755C36.0035 40.1554 35.4348 41.6359 35.2439 43.1868C34.8379 46.5158 36.1739 49.7468 38.8179 51.8298C40.5161 53.1658 42.6152 53.8901 44.7759 53.8858C46.1889 53.8858 47.5829 53.5758 48.8639 52.9728ZM21.4769 33.9008H24.5069V31.8988H21.4769V33.9008ZM14.4069 33.9008H20.4669V31.8988H14.4069V33.9008ZM14.4069 28.8968H23.4969V26.8958H14.4069V28.8968Z" fill="white"/>
</g>
<defs>
<linearGradient id="paint0_linear_1_14" x1="0.365875" y1="6400.89" x2="6400.37" y2="0.885846" gradientUnits="userSpaceOnUse">
<stop stop-color="#BD0816"/>
<stop offset="1" stop-color="#FF5252"/>
</linearGradient>
<clipPath id="clip0_1_14">
<rect width="64" height="64" fill="white" transform="translate(0.365875 0.885846)"/>
</clipPath>
</defs>
</svg>
