<svg width="64" height="64" viewBox="0 0 64 64" fill="none" xmlns="http://www.w3.org/2000/svg">
<g clip-path="url(#clip0_3_14)">
<path fill-rule="evenodd" clip-rule="evenodd" d="M0 0H64V64H0V0Z" fill="url(#paint0_linear_3_14)"/>
<path d="M19 20.9991C20.4793 20.9991 21.6786 19.7998 21.6786 18.3205C21.6786 16.8412 20.4793 15.6419 19 15.6419C17.5207 15.6419 16.3214 16.8412 16.3214 18.3205C16.3214 19.7998 17.5207 20.9991 19 20.9991Z" fill="#00D8FF"/>
<path d="M19 24.4619C15.7805 24.5398 12.5691 24.1058 9.48571 23.1762C8.06138 22.7247 6.73293 22.0134 5.5675 21.0784C5.12278 20.7589 4.75243 20.347 4.48187 19.871C4.2113 19.395 4.04692 18.866 4 18.3205C4 16.5494 5.94571 14.8137 9.205 13.678C12.3708 12.6717 15.6785 12.1839 19 12.2337C22.2772 12.1879 25.5406 12.6668 28.6664 13.6523C30.0382 14.0896 31.3216 14.7665 32.4571 15.6516C32.8943 15.9561 33.2591 16.3531 33.5257 16.8143C33.7923 17.2755 33.9542 17.7897 34 18.3205C34 20.1612 31.825 22.0266 28.3214 23.1859C25.2978 24.0852 22.1541 24.5155 19 24.4619ZM19 13.5151C15.8223 13.4727 12.658 13.9363 9.62607 14.8887C6.62607 15.9355 5.28143 17.3669 5.28143 18.3173C5.28143 19.3116 6.72679 20.8748 9.90036 21.9601C12.8501 22.845 15.9214 23.2569 19 23.1805C22.0176 23.2345 25.0256 22.8262 27.9196 21.9698C31.2143 20.878 32.7143 19.3126 32.7143 18.3205C32.6602 17.98 32.5362 17.6545 32.3499 17.3644C32.1636 17.0743 31.9192 16.826 31.6321 16.6351C30.6162 15.8499 29.4697 15.25 28.2454 14.863C25.255 13.9242 22.1339 13.4691 19 13.5151Z" fill="#00D8FF"/>
<path d="M12.9143 31.6801C12.4145 31.6916 11.9206 31.5703 11.4829 31.3287C9.94859 30.4437 9.41716 27.8916 10.0611 24.5005C10.7711 21.2552 12.0012 18.1462 13.7039 15.2937C15.3012 12.432 17.3459 9.84434 19.7607 7.62872C20.8248 6.65876 22.0524 5.88501 23.3864 5.34336C23.869 5.11722 24.3953 5 24.9282 5C25.4611 5 25.9875 5.11722 26.47 5.34336C28.0654 6.26265 28.5936 9.07836 27.8489 12.6923C27.117 15.7615 25.9188 18.7003 24.2961 21.4062C22.7551 24.2341 20.7747 26.7993 18.4289 29.0059C17.3262 30.0138 16.0464 30.809 14.6543 31.3512C14.097 31.5581 13.5087 31.6693 12.9143 31.6801ZM14.8139 15.9301C13.1898 18.6616 12.0107 21.6341 11.3211 24.7362C10.7286 27.8594 11.2975 29.7376 12.1247 30.2155C12.9818 30.7116 15.0625 30.2412 17.5889 28.0341C19.8283 25.9201 21.7185 23.4646 23.1893 20.7591C24.7439 18.1721 25.8933 15.3624 26.5975 12.4276C27.2982 9.02586 26.6929 6.943 25.8336 6.448C25.5115 6.3246 25.1674 6.26936 24.8229 6.28578C24.4784 6.30219 24.141 6.3899 23.8322 6.54336C22.6447 7.03337 21.5529 7.72903 20.6072 8.59836C18.3 10.7206 16.3468 13.1979 14.8214 15.9366L14.8139 15.9301Z" fill="#00D8FF"/>
<path d="M25.0825 31.6941C23.6307 31.6941 21.7868 30.8155 19.8668 29.1644C17.4097 26.9287 15.3304 24.3102 13.7093 21.4105C12.028 18.5973 10.8075 15.5332 10.0943 12.3344C9.785 10.9271 9.72769 9.47607 9.92503 8.04872C9.97065 7.51923 10.1319 7.00619 10.3974 6.54579C10.6628 6.08538 11.0261 5.68882 11.4615 5.38408C13.0547 4.46158 15.7579 5.40979 18.5168 7.85908C20.8103 10.0257 22.7579 12.5313 24.2918 15.2884C25.9721 18.0359 27.2054 21.0329 27.9454 24.1673C28.268 25.6263 28.3178 27.1323 28.0922 28.6094C28.0385 29.1542 27.8677 29.6808 27.5914 30.1533C27.3151 30.6258 26.9399 31.033 26.4915 31.3469C26.0609 31.5856 25.5746 31.7054 25.0825 31.6941ZM14.8182 20.7655C16.3733 23.5367 18.3596 26.0427 20.7025 28.1894C23.1122 30.2626 25.0236 30.7084 25.8454 30.2251C26.7025 29.7269 27.3347 27.6934 26.6832 24.403C25.9695 21.4104 24.7867 18.5497 23.1786 15.9269C21.7148 13.2881 19.8558 10.8889 17.6661 8.81265C15.069 6.50693 12.9625 5.99158 12.1043 6.48872C11.8368 6.70609 11.6173 6.97657 11.4596 7.28306C11.302 7.58956 11.2096 7.92542 11.1882 8.26943C11.0179 9.54238 11.0734 10.8354 11.3522 12.0891C12.0382 15.1482 13.2087 18.0779 14.8193 20.7676L14.8182 20.7655Z" fill="#00D8FF"/>
<path d="M43 29L28 34.3491L30.2879 54.1826L43 61.2234L55.7121 54.1826L58 34.3491L43 29Z" fill="#DD0031"/>
<path d="M43 29V32.5768V32.5607V48.8818V61.2234L55.7121 54.1826L58 34.3491L43 29Z" fill="#C3002F"/>
<path d="M43 32.5607L33.623 53.5865H37.1192L39.0043 48.8818H46.9635L48.8485 53.5865H52.3448L43 32.5607ZM45.739 45.9817H40.261L43 39.392L45.739 45.9817Z" fill="white"/>
</g>
<defs>
<linearGradient id="paint0_linear_3_14" x1="0" y1="6400" x2="6400" y2="0" gradientUnits="userSpaceOnUse">
<stop stop-color="#0059FF"/>
<stop offset="1" stop-color="#004C14"/>
</linearGradient>
<clipPath id="clip0_3_14">
<rect width="64" height="64" fill="white"/>
</clipPath>
</defs>
</svg>
