<svg width="65" height="65" viewBox="0 0 65 65" fill="none" xmlns="http://www.w3.org/2000/svg">
<g clip-path="url(#clip0_1_18)">
<path fill-rule="evenodd" clip-rule="evenodd" d="M0.365875 0.885846H64.3659V64.8858H0.365875V0.885846Z" fill="url(#paint0_linear_1_18)"/>
<path fill-rule="evenodd" clip-rule="evenodd" d="M45.3659 48.8858C45.3659 47.7458 44.5069 46.8858 43.3659 46.8858C42.2249 46.8858 41.3659 47.7458 41.3659 48.8858C41.3659 50.0258 42.2249 50.8858 43.3659 50.8858C44.5069 50.8858 45.3659 50.0258 45.3659 48.8858ZM32.3659 48.8858C31.2249 48.8858 30.3659 49.7458 30.3659 50.8858C30.3659 52.0258 31.2249 52.8858 32.3659 52.8858C33.5069 52.8858 34.3659 52.0258 34.3659 50.8858C34.3659 49.7458 33.5069 48.8858 32.3659 48.8858ZM21.3659 46.8858C20.2249 46.8858 19.3659 47.7458 19.3659 48.8858C19.3659 50.0258 20.2249 50.8858 21.3659 50.8858C22.5069 50.8858 23.3659 50.0258 23.3659 48.8858C23.3659 47.7458 22.5069 46.8858 21.3659 46.8858ZM24.0269 34.8858H40.7049L35.0749 29.9598L32.9979 31.6598C32.8197 31.807 32.5959 31.8875 32.3649 31.8875C32.1338 31.8875 31.91 31.807 31.7319 31.6598L29.6559 29.9608L24.0269 34.8858ZM22.3659 23.9958V33.6828L28.0869 28.6768L22.3659 23.9958ZM40.5649 22.8858H24.1669L32.3649 29.5938L40.5649 22.8858ZM42.3659 33.6828V23.9958L36.6439 28.6768L42.3659 33.6828ZM47.3659 48.8858C47.3659 51.1288 45.6089 52.8858 43.3659 52.8858C41.1229 52.8858 39.3659 51.1288 39.3659 48.8858C39.357 47.9979 39.6485 47.133 40.1931 46.4315C40.7377 45.7301 41.5034 45.2333 42.3659 45.0218V42.8858H33.3659V47.0218C35.1069 47.4568 36.3659 48.9908 36.3659 50.8858C36.3659 53.1288 34.6089 54.8858 32.3659 54.8858C30.1229 54.8858 28.3659 53.1288 28.3659 50.8858C28.357 49.9979 28.6485 49.133 29.1931 48.4315C29.7377 47.7301 30.5034 47.2333 31.3659 47.0218V42.8858H22.3659V45.0218C24.1069 45.4568 25.3659 46.9908 25.3659 48.8858C25.3659 51.1288 23.6089 52.8858 21.3659 52.8858C19.1229 52.8858 17.3659 51.1288 17.3659 48.8858C17.357 47.9979 17.6485 47.133 18.1931 46.4315C18.7377 45.7301 19.5034 45.2333 20.3659 45.0218V41.8858C20.3659 41.6206 20.4712 41.3663 20.6588 41.1787C20.8463 40.9912 21.1007 40.8858 21.3659 40.8858H31.3659V36.8858H21.3659C21.1007 36.8858 20.8463 36.7805 20.6588 36.593C20.4712 36.4054 20.3659 36.1511 20.3659 35.8858V21.8858C20.3659 21.6206 20.4712 21.3663 20.6588 21.1787C20.8463 20.9912 21.1007 20.8858 21.3659 20.8858H43.3659C43.6311 20.8858 43.8854 20.9912 44.073 21.1787C44.2605 21.3663 44.3659 21.6206 44.3659 21.8858V35.8858C44.3659 36.1511 44.2605 36.4054 44.073 36.593C43.8854 36.7805 43.6311 36.8858 43.3659 36.8858H33.3659V40.8858H43.3659C43.6311 40.8858 43.8854 40.9912 44.073 41.1787C44.2605 41.3663 44.3659 41.6206 44.3659 41.8858V45.0218C46.1069 45.4568 47.3659 46.9908 47.3659 48.8858ZM54.3659 32.8858C54.3659 37.6808 52.7609 42.8868 50.1779 46.4708L48.5539 45.3008C50.9059 42.0398 52.3659 37.2828 52.3659 32.8858C52.3659 21.8578 43.3939 12.8858 32.3669 12.8858C21.3389 12.8858 12.3659 21.8578 12.3659 32.8858C12.3659 37.2828 13.8259 42.0398 16.1779 45.3008L14.5539 46.4708C11.9709 42.8868 10.3659 37.6808 10.3659 32.8858C10.3659 20.7548 20.2349 10.8858 32.3649 10.8858C44.4969 10.8858 54.3659 20.7548 54.3659 32.8858Z" fill="white"/>
</g>
<defs>
<linearGradient id="paint0_linear_1_18" x1="0.365875" y1="6400.89" x2="6400.37" y2="0.885846" gradientUnits="userSpaceOnUse">
<stop stop-color="#BD0816"/>
<stop offset="1" stop-color="#FF5252"/>
</linearGradient>
<clipPath id="clip0_1_18">
<rect width="64" height="64" fill="white" transform="translate(0.365875 0.885846)"/>
</clipPath>
</defs>
</svg>
