<svg width="64" height="64" viewBox="0 0 64 64" fill="none" xmlns="http://www.w3.org/2000/svg">
<rect width="64" height="64" fill="#4275FA"/>
<path d="M11.2719 42.6875C11.1677 42.6615 10.9594 42.5703 10.6469 42.4141C10.3344 42.2578 10.126 42.1406 10.0219 42.0625C8.82396 40.9427 7.76927 39.875 6.85781 38.8594C5.94635 37.8177 5.19115 36.737 4.59219 35.6172C4.01927 34.4714 3.61563 33.2344 3.38125 31.9062C3.14688 30.5781 3.10781 29.0547 3.26406 27.3359C3.31615 27.2057 3.39427 27.1016 3.49844 27.0234C3.6026 26.9453 3.71979 26.9323 3.85 26.9844C4.03229 28.4688 4.27969 29.8229 4.59219 31.0469C4.90469 32.2708 5.32135 33.4167 5.84219 34.4844C6.38906 35.5521 7.05313 36.5807 7.83438 37.5703C8.61563 38.5339 9.55313 39.5234 10.6469 40.5391C10.9594 40.8255 11.2979 41.0208 11.6625 41.125C12.0531 41.2031 12.4438 41.2161 12.8344 41.1641C13.225 41.0859 13.6026 40.9688 13.9672 40.8125C14.3318 40.6562 14.6573 40.4609 14.9438 40.2266C15.9073 39.4714 16.7016 38.5339 17.3266 37.4141C17.9776 36.2682 18.4594 35.0312 18.7719 33.7031C19.0844 32.375 19.2406 30.9948 19.2406 29.5625C19.2667 28.1042 19.1625 26.6979 18.9281 25.3438C18.6938 23.9635 18.3292 22.6615 17.8344 21.4375C17.3396 20.2135 16.7536 19.1458 16.0766 18.2344C15.0089 18.0781 13.9411 18.0911 12.8734 18.2734C11.8057 18.4557 10.725 18.6771 9.63125 18.9375C8.5375 19.1979 7.44375 19.4323 6.35 19.6406C5.28229 19.8229 4.2276 19.862 3.18594 19.7578C2.6651 19.1328 2.5349 18.6641 2.79531 18.3516C3.08177 18.013 3.52448 17.7786 4.12344 17.6484C4.7224 17.4922 5.36042 17.401 6.0375 17.375C6.71458 17.349 7.18333 17.3229 7.44375 17.2969C7.62604 17.2708 8.01667 17.2188 8.61563 17.1406C9.21458 17.0625 9.8526 16.9844 10.5297 16.9062C11.2068 16.8021 11.8578 16.6979 12.4828 16.5938C13.1339 16.4896 13.6156 16.4115 13.9281 16.3594C14.0583 16.3333 14.3188 16.2943 14.7094 16.2422C15.1 16.1641 15.3474 16.099 15.4516 16.0469C15.9464 15.9948 16.7016 15.9036 17.7172 15.7734C18.7328 15.6432 19.8786 15.5 21.1547 15.3438C22.4307 15.1875 23.7719 15.0182 25.1781 14.8359C26.5844 14.6536 27.9255 14.4844 29.2016 14.3281C30.4776 14.1719 31.6104 14.0286 32.6 13.8984C33.6156 13.7682 34.3708 13.6771 34.8656 13.625C34.8917 13.625 35.0479 13.5729 35.3344 13.4688C35.6469 13.3385 35.9854 13.2214 36.35 13.1172C36.7146 12.987 37.0531 12.8828 37.3656 12.8047C37.6781 12.7005 37.8604 12.6615 37.9125 12.6875C38.4854 12.974 38.85 13.2734 39.0063 13.5859C39.1625 13.8984 39.1885 14.1979 39.0844 14.4844C39.0063 14.7708 38.837 15.0443 38.5766 15.3047C38.3161 15.5391 38.0427 15.7214 37.7563 15.8516C37.4958 15.9818 37.2484 16.0469 37.0141 16.0469C36.8057 16.0469 36.7016 15.9557 36.7016 15.7734H34.2406L20.1 17.6094L18.85 17.8828C19.1885 18.4036 19.488 19.1719 19.7484 20.1875C20.0349 21.2031 20.2563 22.375 20.4125 23.7031C20.5688 25.0312 20.6469 26.4635 20.6469 28C20.6469 29.5104 20.5427 31.0078 20.3344 32.4922C20.126 33.9505 19.8005 35.3438 19.3578 36.6719C18.9151 38 18.3292 39.1458 17.6 40.1094C16.8708 41.0729 15.9854 41.8021 14.9438 42.2969C13.9021 42.7656 12.6781 42.8958 11.2719 42.6875ZM40.3297 43.8984C38.4547 43.4297 36.9964 42.5052 35.9547 41.125C34.9391 39.7448 34.249 38.1302 33.8844 36.2812C33.5198 34.4062 33.4417 32.401 33.65 30.2656C33.8583 28.1042 34.275 26.0208 34.9 24.0156C35.525 22.0104 36.2932 20.1745 37.2047 18.5078C38.1422 16.8151 39.1448 15.513 40.2125 14.6016C41.3062 13.6641 42.413 13.2214 43.5328 13.2734C44.6526 13.3255 45.7203 14.0547 46.7359 15.4609C47.6474 16.7109 48.3115 18.0651 48.7281 19.5234C49.1708 20.9818 49.3271 22.4922 49.1969 24.0547C48.7542 24.6016 48.2854 24.9531 47.7906 25.1094C47.2958 25.2396 46.801 25.2526 46.3062 25.1484C45.8375 25.0443 45.3948 24.862 44.9781 24.6016C44.5615 24.3411 44.2099 24.0677 43.9234 23.7812C43.663 23.4948 43.4937 23.2474 43.4156 23.0391C43.3635 22.8047 43.4547 22.6875 43.6891 22.6875H47.0484C47.0745 22.4271 47.0615 22.0365 47.0094 21.5156C46.9833 20.9688 46.9052 20.3698 46.775 19.7188C46.6448 19.0677 46.4755 18.4167 46.2672 17.7656C46.0589 17.1146 45.7984 16.5417 45.4859 16.0469C45.1734 15.5521 44.8089 15.1875 44.3922 14.9531C44.0016 14.6927 43.5458 14.6406 43.025 14.7969C42.1396 15.1094 41.3583 15.6953 40.6812 16.5547C40.0302 17.4141 39.4573 18.3906 38.9625 19.4844C38.4937 20.5521 38.0901 21.6458 37.7516 22.7656C37.4391 23.8854 37.1656 24.8359 36.9312 25.6172C35.7854 29.3932 35.3036 32.5182 35.4859 34.9922C35.6682 37.4661 36.2802 39.3542 37.3219 40.6562C38.3896 41.9323 39.7828 42.6615 41.5016 42.8438C43.2203 43 45.0432 42.6745 46.9703 41.8672C48.8974 41.0339 50.8115 39.7448 52.7125 38C54.6135 36.2552 56.2802 34.1198 57.7125 31.5938C58.025 31.0729 58.3766 30.5391 58.7672 29.9922C59.1578 29.4453 59.4182 28.8594 59.5484 28.2344C59.3922 28.1823 58.9755 28.2734 58.2984 28.5078C57.6214 28.7161 56.8271 28.9896 55.9156 29.3281C55.0302 29.6406 54.0797 29.9661 53.0641 30.3047C52.0745 30.6172 51.176 30.8646 50.3687 31.0469C49.5615 31.2031 48.9104 31.2552 48.4156 31.2031C47.9208 31.125 47.7385 30.8516 47.8687 30.3828C47.9469 30.0703 48.1812 29.7318 48.5719 29.3672C48.9885 28.9766 49.4573 28.651 49.9781 28.3906C50.525 28.1042 51.0589 27.9089 51.5797 27.8047C52.1005 27.6745 52.5042 27.7135 52.7906 27.9219C53.4417 27.8177 54.1318 27.6094 54.8609 27.2969C55.6161 26.9844 56.3714 26.6719 57.1266 26.3594C57.8818 26.0469 58.624 25.7734 59.3531 25.5391C60.0823 25.2786 60.7594 25.1484 61.3844 25.1484C62.1656 25.1484 62.6604 25.2786 62.8687 25.5391C63.1031 25.7734 63.1812 26.0729 63.1031 26.4375C63.025 26.776 62.8557 27.1406 62.5953 27.5312C62.3609 27.9219 62.1656 28.2474 62.0094 28.5078C61.176 29.9661 60.3167 31.4245 59.4312 32.8828C58.5719 34.3411 57.6474 35.7214 56.6578 37.0234C55.6943 38.2995 54.6526 39.4714 53.5328 40.5391C52.4391 41.6068 51.2281 42.4661 49.9 43.1172C48.5719 43.7682 47.1135 44.1719 45.525 44.3281C43.9625 44.5104 42.2307 44.3672 40.3297 43.8984Z" fill="white"/>
</svg>
