<svg width="72" height="64" viewBox="0 0 72 64" fill="none" xmlns="http://www.w3.org/2000/svg">
<path d="M35.8354 38.526C39.4396 38.526 42.3613 35.6042 42.3613 32.0001C42.3613 28.3959 39.4396 25.4741 35.8354 25.4741C32.2312 25.4741 29.3094 28.3959 29.3094 32.0001C29.3094 35.6042 32.2312 38.526 35.8354 38.526Z" fill="#61DAFB"/>
<path d="M60.6225 21.2379C59.3632 20.78 58.0465 20.322 56.6726 19.9213C57.0161 18.5474 57.3023 17.1735 57.5313 15.8569C58.7335 8.30054 57.4168 2.97674 53.7531 0.915921C52.6655 0.286225 51.4633 0 50.0894 0C46.0823 0 40.9875 2.97674 35.8354 7.95707C30.6834 2.97674 25.5885 0 21.5814 0C20.2075 0 19.0054 0.286225 17.9177 0.915921C14.254 3.03399 12.9374 8.35778 14.1395 15.8569C14.3685 17.1735 14.6547 18.5474 14.9982 19.9213C13.6243 20.322 12.3077 20.7227 11.0483 21.2379C3.89267 23.9857 0 27.7639 0 32C0 36.2361 3.94991 40.0143 11.0483 42.7621C12.3077 43.22 13.6243 43.678 14.9982 44.0787C14.6547 45.4526 14.3685 46.8265 14.1395 48.1431C12.9374 55.6995 14.254 61.0233 17.9177 63.0841C19.0054 63.7138 20.2075 64 21.5814 64C25.6458 64 30.7406 61.0233 35.8354 56.0429C40.9875 61.0233 46.0823 64 50.0894 64C51.4633 64 52.6655 63.7138 53.7531 63.0841C57.4168 60.966 58.7335 55.6422 57.5313 48.1431C57.3023 46.8265 57.0161 45.4526 56.6726 44.0787C58.0465 43.678 59.3632 43.2773 60.6225 42.7621C67.7782 40.0143 71.6708 36.2361 71.6708 32C71.6708 27.7639 67.7782 23.9857 60.6225 21.2379V21.2379ZM52.1503 3.77818C54.4973 5.15206 55.2987 9.38819 54.3256 15.3989C54.1538 16.6011 53.8676 17.8605 53.5242 19.1771C50.5474 18.4902 47.3989 18.0322 44.0787 17.746C42.1324 14.9982 40.1288 12.5367 38.1252 10.3041C42.3614 6.12522 46.6547 3.26297 50.1467 3.26297C50.8909 3.26297 51.5778 3.4347 52.1503 3.77818V3.77818ZM45.7388 37.7245C44.7084 39.5564 43.5063 41.3882 42.2469 43.22C40.1288 43.3918 38.0107 43.449 35.8354 43.449C33.6029 43.449 31.4848 43.3918 29.424 43.22C28.1646 41.3882 27.0197 39.5564 25.9893 37.7245C24.9016 35.8354 23.8712 33.8891 22.9553 32C23.8712 30.1109 24.9016 28.1646 25.9893 26.2755C27.0197 24.4437 28.2218 22.6118 29.4812 20.78C31.5993 20.6082 33.7174 20.551 35.8927 20.551C38.1252 20.551 40.2433 20.6082 42.3041 20.78C43.5635 22.6118 44.7084 24.4437 45.7388 26.2755C46.8265 28.1646 47.8569 30.1109 48.7728 32C47.7996 33.8891 46.8265 35.7782 45.7388 37.7245ZM50.4902 35.8354C51.3488 37.839 52.0358 39.7853 52.6655 41.7317C50.7191 42.1896 48.6583 42.5331 46.483 42.8193C47.1699 41.7317 47.9141 40.5868 48.5438 39.3846C49.2308 38.1825 49.8605 36.9803 50.4902 35.8354ZM35.8354 51.3488C34.4615 49.8605 33.1449 48.2576 31.8855 46.5975C33.2021 46.6547 34.5188 46.712 35.8354 46.712C37.1521 46.712 38.4687 46.6547 39.7853 46.5975C38.5259 48.2576 37.2093 49.8605 35.8354 51.3488ZM25.1878 42.7621C23.0125 42.4759 20.9517 42.1324 19.0054 41.6744C19.6351 39.7853 20.322 37.7818 21.1807 35.7782C21.8104 36.9231 22.4401 38.1252 23.127 39.2701C23.814 40.5295 24.5009 41.6172 25.1878 42.7621V42.7621ZM21.1807 28.1646C20.322 26.161 19.6351 24.2147 19.0054 22.2683C20.9517 21.8104 23.0125 21.4669 25.1878 21.1807C24.5009 22.2683 23.7567 23.4132 23.127 24.6154C22.4401 25.8175 21.8104 27.0197 21.1807 28.1646V28.1646ZM35.8354 12.6512C37.2093 14.1395 38.5259 15.7424 39.7853 17.4025C38.4687 17.3453 37.1521 17.288 35.8354 17.288C34.5188 17.288 33.2021 17.3453 31.8855 17.4025C33.1449 15.7424 34.4615 14.1395 35.8354 12.6512ZM48.5438 24.6726L46.483 21.2379C48.6583 21.5241 50.7191 21.8676 52.6655 22.3256C52.0358 24.2147 51.3488 26.2182 50.4902 28.2218C49.8605 27.0197 49.2308 25.8175 48.5438 24.6726ZM17.3453 15.3989C16.3721 9.38819 17.1735 5.15206 19.5206 3.77818C20.093 3.4347 20.78 3.26297 21.5241 3.26297C24.9589 3.26297 29.2522 6.06798 33.5456 10.3041C31.542 12.4794 29.5385 14.9982 27.5921 17.746C24.2719 18.0322 21.1234 18.5474 18.1467 19.1771C17.8032 17.8605 17.5742 16.6011 17.3453 15.3989V15.3989ZM3.20572 32C3.20572 29.3095 6.46869 26.4472 12.1932 24.3292C13.3381 23.8712 14.5975 23.4705 15.8569 23.127C16.7728 25.9893 17.9177 29.0233 19.2916 32.0572C17.9177 35.0912 16.7156 38.068 15.8569 40.9302C7.95707 38.6404 3.20572 35.2057 3.20572 32ZM19.5206 60.2218C17.1735 58.8479 16.3721 54.6118 17.3453 48.6011C17.517 47.3989 17.8032 46.1395 18.1467 44.8229C21.1234 45.5098 24.2719 45.9678 27.5921 46.254C29.5385 49.0018 31.542 51.4633 33.5456 53.6959C29.3095 57.8748 25.0161 60.737 21.5241 60.737C20.78 60.737 20.093 60.5653 19.5206 60.2218ZM54.3256 48.6011C55.2987 54.6118 54.4973 58.8479 52.1503 60.2218C51.5778 60.5653 50.8909 60.737 50.1467 60.737C46.712 60.737 42.4186 57.932 38.1252 53.6959C40.1288 51.5206 42.1324 49.0018 44.0787 46.254C47.3989 45.9678 50.5474 45.4526 53.5242 44.8229C53.8676 46.1395 54.0966 47.3989 54.3256 48.6011V48.6011ZM59.4776 39.6708C58.3327 40.1288 57.0733 40.5295 55.814 40.873C54.898 38.0107 53.7531 34.9767 52.3792 31.9428C53.7531 28.9088 54.9553 25.932 55.814 23.0698C63.7138 25.3596 68.4651 28.7943 68.4651 32C68.4651 34.6905 65.1449 37.5528 59.4776 39.6708Z" fill="#61DAFB"/>
</svg>
